<mxfile host="app.diagrams.net" modified="2024-07-05T09:56:59.019Z" agent="Mozilla/5.0 (Windows NT 10.0; Win64; x64) AppleWebKit/537.36 (KHTML, like Gecko) Chrome/126.0.0.0 Safari/537.36 Edg/126.0.0.0" etag="TQF_56zJN_GtccLFlvEx" version="24.6.4" type="device">
  <diagram id="C5RBs43oDa-KdzZeNtuy" name="Page-1">
    <mxGraphModel dx="656" dy="569" grid="1" gridSize="10" guides="1" tooltips="1" connect="1" arrows="1" fold="1" page="1" pageScale="1" pageWidth="827" pageHeight="1169" math="0" shadow="0">
      <root>
        <mxCell id="WIyWlLk6GJQsqaUBKTNV-0" />
        <mxCell id="WIyWlLk6GJQsqaUBKTNV-1" parent="WIyWlLk6GJQsqaUBKTNV-0" />
        <mxCell id="KeOOfxueYRGmwYLGnFNR-5" style="edgeStyle=none;rounded=0;orthogonalLoop=1;jettySize=auto;html=1;exitX=0.5;exitY=1;exitDx=0;exitDy=0;entryX=0.5;entryY=0;entryDx=0;entryDy=0;" parent="WIyWlLk6GJQsqaUBKTNV-1" source="WIyWlLk6GJQsqaUBKTNV-3" target="KeOOfxueYRGmwYLGnFNR-0" edge="1">
          <mxGeometry relative="1" as="geometry" />
        </mxCell>
        <mxCell id="WIyWlLk6GJQsqaUBKTNV-3" value="Computer draws first card( shown)" style="rounded=1;whiteSpace=wrap;html=1;fontSize=12;glass=0;strokeWidth=1;shadow=0;" parent="WIyWlLk6GJQsqaUBKTNV-1" vertex="1">
          <mxGeometry x="328" y="20" width="120" height="40" as="geometry" />
        </mxCell>
        <mxCell id="KeOOfxueYRGmwYLGnFNR-6" style="edgeStyle=none;rounded=0;orthogonalLoop=1;jettySize=auto;html=1;exitX=0.5;exitY=1;exitDx=0;exitDy=0;entryX=0.5;entryY=0;entryDx=0;entryDy=0;" parent="WIyWlLk6GJQsqaUBKTNV-1" source="KeOOfxueYRGmwYLGnFNR-0" target="KeOOfxueYRGmwYLGnFNR-1" edge="1">
          <mxGeometry relative="1" as="geometry" />
        </mxCell>
        <mxCell id="KeOOfxueYRGmwYLGnFNR-0" value="Player draws second card (show)" style="rounded=1;whiteSpace=wrap;html=1;fontSize=12;glass=0;strokeWidth=1;shadow=0;" parent="WIyWlLk6GJQsqaUBKTNV-1" vertex="1">
          <mxGeometry x="328" y="80" width="120" height="40" as="geometry" />
        </mxCell>
        <mxCell id="KeOOfxueYRGmwYLGnFNR-7" style="edgeStyle=none;rounded=0;orthogonalLoop=1;jettySize=auto;html=1;exitX=0.5;exitY=1;exitDx=0;exitDy=0;entryX=0.5;entryY=0;entryDx=0;entryDy=0;" parent="WIyWlLk6GJQsqaUBKTNV-1" source="KeOOfxueYRGmwYLGnFNR-1" target="KeOOfxueYRGmwYLGnFNR-3" edge="1">
          <mxGeometry relative="1" as="geometry" />
        </mxCell>
        <mxCell id="KeOOfxueYRGmwYLGnFNR-1" value="Computer Draws third card (hidden)&lt;div&gt;&lt;br&gt;&lt;/div&gt;" style="rounded=1;whiteSpace=wrap;html=1;fontSize=12;glass=0;strokeWidth=1;shadow=0;" parent="WIyWlLk6GJQsqaUBKTNV-1" vertex="1">
          <mxGeometry x="328" y="150" width="120" height="40" as="geometry" />
        </mxCell>
        <mxCell id="KeOOfxueYRGmwYLGnFNR-8" style="edgeStyle=none;rounded=0;orthogonalLoop=1;jettySize=auto;html=1;exitX=0.5;exitY=1;exitDx=0;exitDy=0;entryX=0.5;entryY=0;entryDx=0;entryDy=0;" parent="WIyWlLk6GJQsqaUBKTNV-1" source="KeOOfxueYRGmwYLGnFNR-3" target="KeOOfxueYRGmwYLGnFNR-4" edge="1">
          <mxGeometry relative="1" as="geometry" />
        </mxCell>
        <mxCell id="KeOOfxueYRGmwYLGnFNR-3" value="&lt;div&gt;Player draws fourth card (hidden)&lt;/div&gt;" style="rounded=1;whiteSpace=wrap;html=1;fontSize=12;glass=0;strokeWidth=1;shadow=0;" parent="WIyWlLk6GJQsqaUBKTNV-1" vertex="1">
          <mxGeometry x="328" y="210" width="120" height="40" as="geometry" />
        </mxCell>
        <mxCell id="KeOOfxueYRGmwYLGnFNR-23" value="" style="edgeStyle=none;rounded=0;orthogonalLoop=1;jettySize=auto;html=1;" parent="WIyWlLk6GJQsqaUBKTNV-1" source="KeOOfxueYRGmwYLGnFNR-4" target="KeOOfxueYRGmwYLGnFNR-11" edge="1">
          <mxGeometry relative="1" as="geometry" />
        </mxCell>
        <mxCell id="KeOOfxueYRGmwYLGnFNR-4" value="Blackjack?" style="rhombus;whiteSpace=wrap;html=1;" parent="WIyWlLk6GJQsqaUBKTNV-1" vertex="1">
          <mxGeometry x="348" y="280" width="80" height="80" as="geometry" />
        </mxCell>
        <mxCell id="KeOOfxueYRGmwYLGnFNR-11" value="Play again?" style="rhombus;whiteSpace=wrap;html=1;" parent="WIyWlLk6GJQsqaUBKTNV-1" vertex="1">
          <mxGeometry x="228" y="280" width="80" height="80" as="geometry" />
        </mxCell>
        <mxCell id="KeOOfxueYRGmwYLGnFNR-18" value="" style="endArrow=classic;html=1;rounded=0;exitX=0;exitY=0.5;exitDx=0;exitDy=0;entryX=1;entryY=0.5;entryDx=0;entryDy=0;" parent="WIyWlLk6GJQsqaUBKTNV-1" source="KeOOfxueYRGmwYLGnFNR-4" target="KeOOfxueYRGmwYLGnFNR-11" edge="1">
          <mxGeometry width="50" height="50" relative="1" as="geometry">
            <mxPoint x="528" y="310" as="sourcePoint" />
            <mxPoint x="578" y="260" as="targetPoint" />
          </mxGeometry>
        </mxCell>
        <mxCell id="KeOOfxueYRGmwYLGnFNR-19" value="yes&lt;div&gt;&lt;br&gt;&lt;/div&gt;" style="edgeLabel;html=1;align=center;verticalAlign=middle;resizable=0;points=[];" parent="KeOOfxueYRGmwYLGnFNR-18" vertex="1" connectable="0">
          <mxGeometry x="-0.34" y="1" relative="1" as="geometry">
            <mxPoint x="-7" y="-21" as="offset" />
          </mxGeometry>
        </mxCell>
        <mxCell id="KeOOfxueYRGmwYLGnFNR-21" value="" style="endArrow=classic;html=1;rounded=0;exitX=0.5;exitY=0;exitDx=0;exitDy=0;" parent="WIyWlLk6GJQsqaUBKTNV-1" source="KeOOfxueYRGmwYLGnFNR-11" edge="1">
          <mxGeometry width="50" height="50" relative="1" as="geometry">
            <mxPoint x="568" y="310" as="sourcePoint" />
            <mxPoint x="268" y="40" as="targetPoint" />
          </mxGeometry>
        </mxCell>
        <mxCell id="KeOOfxueYRGmwYLGnFNR-22" value="Yes&lt;div&gt;&lt;br&gt;&lt;/div&gt;" style="edgeLabel;html=1;align=center;verticalAlign=middle;resizable=0;points=[];" parent="KeOOfxueYRGmwYLGnFNR-21" vertex="1" connectable="0">
          <mxGeometry x="-0.0417" y="3" relative="1" as="geometry">
            <mxPoint x="-27" y="5" as="offset" />
          </mxGeometry>
        </mxCell>
        <mxCell id="KeOOfxueYRGmwYLGnFNR-25" value="" style="endArrow=classic;html=1;rounded=0;entryX=0;entryY=0.5;entryDx=0;entryDy=0;" parent="WIyWlLk6GJQsqaUBKTNV-1" target="WIyWlLk6GJQsqaUBKTNV-3" edge="1">
          <mxGeometry width="50" height="50" relative="1" as="geometry">
            <mxPoint x="268" y="40" as="sourcePoint" />
            <mxPoint x="618" y="260" as="targetPoint" />
          </mxGeometry>
        </mxCell>
        <mxCell id="KeOOfxueYRGmwYLGnFNR-32" value="" style="edgeStyle=none;rounded=0;orthogonalLoop=1;jettySize=auto;html=1;" parent="WIyWlLk6GJQsqaUBKTNV-1" source="KeOOfxueYRGmwYLGnFNR-28" target="KeOOfxueYRGmwYLGnFNR-31" edge="1">
          <mxGeometry relative="1" as="geometry" />
        </mxCell>
        <mxCell id="KeOOfxueYRGmwYLGnFNR-34" value="" style="edgeStyle=none;rounded=0;orthogonalLoop=1;jettySize=auto;html=1;" parent="WIyWlLk6GJQsqaUBKTNV-1" source="KeOOfxueYRGmwYLGnFNR-28" target="KeOOfxueYRGmwYLGnFNR-33" edge="1">
          <mxGeometry relative="1" as="geometry" />
        </mxCell>
        <mxCell id="KeOOfxueYRGmwYLGnFNR-28" value="&lt;div&gt;Player want to hit or stay&lt;/div&gt;" style="rounded=1;whiteSpace=wrap;html=1;fontSize=12;glass=0;strokeWidth=1;shadow=0;" parent="WIyWlLk6GJQsqaUBKTNV-1" vertex="1">
          <mxGeometry x="328" y="400" width="120" height="40" as="geometry" />
        </mxCell>
        <mxCell id="KeOOfxueYRGmwYLGnFNR-29" value="" style="endArrow=classic;html=1;rounded=0;exitX=0.5;exitY=1;exitDx=0;exitDy=0;entryX=0.5;entryY=0;entryDx=0;entryDy=0;" parent="WIyWlLk6GJQsqaUBKTNV-1" source="KeOOfxueYRGmwYLGnFNR-4" target="KeOOfxueYRGmwYLGnFNR-28" edge="1">
          <mxGeometry width="50" height="50" relative="1" as="geometry">
            <mxPoint x="568" y="370" as="sourcePoint" />
            <mxPoint x="618" y="320" as="targetPoint" />
          </mxGeometry>
        </mxCell>
        <mxCell id="KeOOfxueYRGmwYLGnFNR-30" value="No" style="edgeLabel;html=1;align=center;verticalAlign=middle;resizable=0;points=[];" parent="KeOOfxueYRGmwYLGnFNR-29" vertex="1" connectable="0">
          <mxGeometry x="0.02" relative="1" as="geometry">
            <mxPoint x="40" as="offset" />
          </mxGeometry>
        </mxCell>
        <mxCell id="KeOOfxueYRGmwYLGnFNR-31" value="Stay" style="whiteSpace=wrap;html=1;rounded=1;glass=0;strokeWidth=1;shadow=0;" parent="WIyWlLk6GJQsqaUBKTNV-1" vertex="1">
          <mxGeometry x="328" y="510" width="120" height="40" as="geometry" />
        </mxCell>
        <mxCell id="KeOOfxueYRGmwYLGnFNR-33" value="Hit" style="whiteSpace=wrap;html=1;rounded=1;glass=0;strokeWidth=1;shadow=0;" parent="WIyWlLk6GJQsqaUBKTNV-1" vertex="1">
          <mxGeometry x="528" y="400" width="120" height="40" as="geometry" />
        </mxCell>
        <mxCell id="dIHFcowzfQLvY8L4ZDfH-2" style="edgeStyle=orthogonalEdgeStyle;rounded=0;orthogonalLoop=1;jettySize=auto;html=1;exitX=0.5;exitY=0;exitDx=0;exitDy=0;" edge="1" parent="WIyWlLk6GJQsqaUBKTNV-1" source="dIHFcowzfQLvY8L4ZDfH-0">
          <mxGeometry relative="1" as="geometry">
            <mxPoint x="388" y="600" as="targetPoint" />
          </mxGeometry>
        </mxCell>
        <mxCell id="dIHFcowzfQLvY8L4ZDfH-0" value="Player &amp;gt; Owner" style="whiteSpace=wrap;html=1;rounded=1;glass=0;strokeWidth=1;shadow=0;" vertex="1" parent="WIyWlLk6GJQsqaUBKTNV-1">
          <mxGeometry x="328" y="620" width="120" height="40" as="geometry" />
        </mxCell>
        <mxCell id="dIHFcowzfQLvY8L4ZDfH-1" value="" style="edgeStyle=none;rounded=0;orthogonalLoop=1;jettySize=auto;html=1;exitX=0.5;exitY=1;exitDx=0;exitDy=0;" edge="1" parent="WIyWlLk6GJQsqaUBKTNV-1" source="KeOOfxueYRGmwYLGnFNR-31">
          <mxGeometry relative="1" as="geometry">
            <mxPoint x="388" y="560" as="sourcePoint" />
            <mxPoint x="387.5" y="610" as="targetPoint" />
          </mxGeometry>
        </mxCell>
        <mxCell id="dIHFcowzfQLvY8L4ZDfH-4" value="Player wins" style="whiteSpace=wrap;html=1;rounded=1;glass=0;strokeWidth=1;shadow=0;" vertex="1" parent="WIyWlLk6GJQsqaUBKTNV-1">
          <mxGeometry x="328" y="710" width="120" height="40" as="geometry" />
        </mxCell>
        <mxCell id="dIHFcowzfQLvY8L4ZDfH-5" value="" style="edgeStyle=none;rounded=0;orthogonalLoop=1;jettySize=auto;html=1;exitX=0.5;exitY=1;exitDx=0;exitDy=0;" edge="1" parent="WIyWlLk6GJQsqaUBKTNV-1">
          <mxGeometry relative="1" as="geometry">
            <mxPoint x="388" y="660" as="sourcePoint" />
            <mxPoint x="388" y="710" as="targetPoint" />
          </mxGeometry>
        </mxCell>
        <mxCell id="dIHFcowzfQLvY8L4ZDfH-6" value="Yes" style="edgeLabel;html=1;align=center;verticalAlign=middle;resizable=0;points=[];" vertex="1" connectable="0" parent="WIyWlLk6GJQsqaUBKTNV-1">
          <mxGeometry x="438" y="390" as="geometry">
            <mxPoint x="-22" y="300" as="offset" />
          </mxGeometry>
        </mxCell>
        <mxCell id="dIHFcowzfQLvY8L4ZDfH-8" value="" style="endArrow=classic;html=1;rounded=0;" edge="1" parent="WIyWlLk6GJQsqaUBKTNV-1">
          <mxGeometry width="50" height="50" relative="1" as="geometry">
            <mxPoint x="328" y="730" as="sourcePoint" />
            <mxPoint x="268" y="730" as="targetPoint" />
          </mxGeometry>
        </mxCell>
        <mxCell id="dIHFcowzfQLvY8L4ZDfH-9" value="" style="endArrow=classic;html=1;rounded=0;entryX=0.5;entryY=1;entryDx=0;entryDy=0;" edge="1" parent="WIyWlLk6GJQsqaUBKTNV-1" target="KeOOfxueYRGmwYLGnFNR-11">
          <mxGeometry width="50" height="50" relative="1" as="geometry">
            <mxPoint x="278" y="730" as="sourcePoint" />
            <mxPoint x="528" y="560" as="targetPoint" />
            <Array as="points">
              <mxPoint x="268" y="730" />
            </Array>
          </mxGeometry>
        </mxCell>
        <mxCell id="dIHFcowzfQLvY8L4ZDfH-10" value="" style="endArrow=classic;html=1;rounded=0;exitX=0.5;exitY=1;exitDx=0;exitDy=0;" edge="1" parent="WIyWlLk6GJQsqaUBKTNV-1" source="KeOOfxueYRGmwYLGnFNR-33">
          <mxGeometry width="50" height="50" relative="1" as="geometry">
            <mxPoint x="718" y="460" as="sourcePoint" />
            <mxPoint x="588" y="490" as="targetPoint" />
          </mxGeometry>
        </mxCell>
        <mxCell id="dIHFcowzfQLvY8L4ZDfH-12" value="End Game" style="rounded=0;whiteSpace=wrap;html=1;" vertex="1" parent="WIyWlLk6GJQsqaUBKTNV-1">
          <mxGeometry x="40" y="290" width="120" height="60" as="geometry" />
        </mxCell>
        <mxCell id="dIHFcowzfQLvY8L4ZDfH-13" value="Over&amp;nbsp; 21/Bust" style="whiteSpace=wrap;html=1;rounded=1;glass=0;strokeWidth=1;shadow=0;" vertex="1" parent="WIyWlLk6GJQsqaUBKTNV-1">
          <mxGeometry x="528" y="490" width="120" height="40" as="geometry" />
        </mxCell>
        <mxCell id="dIHFcowzfQLvY8L4ZDfH-14" value="Computer Wins" style="whiteSpace=wrap;html=1;rounded=1;glass=0;strokeWidth=1;shadow=0;" vertex="1" parent="WIyWlLk6GJQsqaUBKTNV-1">
          <mxGeometry x="528" y="562" width="120" height="40" as="geometry" />
        </mxCell>
        <mxCell id="dIHFcowzfQLvY8L4ZDfH-15" value="" style="endArrow=classic;html=1;rounded=0;exitX=0.5;exitY=1;exitDx=0;exitDy=0;" edge="1" parent="WIyWlLk6GJQsqaUBKTNV-1">
          <mxGeometry width="50" height="50" relative="1" as="geometry">
            <mxPoint x="587.5" y="530" as="sourcePoint" />
            <mxPoint x="588" y="560" as="targetPoint" />
          </mxGeometry>
        </mxCell>
        <mxCell id="dIHFcowzfQLvY8L4ZDfH-16" value="" style="endArrow=classic;html=1;rounded=0;" edge="1" parent="WIyWlLk6GJQsqaUBKTNV-1">
          <mxGeometry width="50" height="50" relative="1" as="geometry">
            <mxPoint x="528" y="580" as="sourcePoint" />
            <mxPoint x="268" y="580" as="targetPoint" />
          </mxGeometry>
        </mxCell>
        <mxCell id="dIHFcowzfQLvY8L4ZDfH-22" value="" style="endArrow=classic;html=1;rounded=0;exitX=0;exitY=0.5;exitDx=0;exitDy=0;" edge="1" parent="WIyWlLk6GJQsqaUBKTNV-1" source="KeOOfxueYRGmwYLGnFNR-11">
          <mxGeometry width="50" height="50" relative="1" as="geometry">
            <mxPoint x="220" y="310" as="sourcePoint" />
            <mxPoint x="160" y="320" as="targetPoint" />
            <Array as="points">
              <mxPoint x="160" y="320" />
            </Array>
          </mxGeometry>
        </mxCell>
        <mxCell id="dIHFcowzfQLvY8L4ZDfH-23" value="No" style="edgeLabel;html=1;align=center;verticalAlign=middle;resizable=0;points=[];" vertex="1" connectable="0" parent="dIHFcowzfQLvY8L4ZDfH-22">
          <mxGeometry x="-0.34" y="1" relative="1" as="geometry">
            <mxPoint x="-7" y="-21" as="offset" />
          </mxGeometry>
        </mxCell>
      </root>
    </mxGraphModel>
  </diagram>
</mxfile>
